# File created by Blade
# Date/Time:  Tue Jan 27 18:12:51 2015
#---------------------------------------------------------
:version 1.10
:name HOM
:units
  mass 1.0
  length 1.000000
  angle deg
:documentation
     Acclaim Skeleton File
:root
   axis xyz
   order TX TY TZ RX RY RZ
   position 0.000000 0.000000 0.000000
   orientation 0 0 0
:bonedata
   begin
      id 1
      name Spine_dum
      direction 0.000000 1.000000 0.000000
      length 5.195262
      axis 0.0 0.0 0.0 xyz
   end
   begin
      id 2
      name LeftUpLeg_dum
      direction 1.000000 0.000000 0.000000
      length 3.351363
      axis 0.0 0.0 0.0 xyz
   end
   begin
      id 3
      name RightUpLeg_dum
      direction -1.000000 0.000000 0.000000
      length 3.351363
      axis 0.0 0.0 0.0 xyz
   end
   begin
      id 4
      name Spine
      direction 0.000000 1.000000 0.000000
      length 0.000000
      axis 0.0 0.0 0.0 xyz
      dof rx ry rz
   end
   begin
      id 5
      name Spine_dum1
      direction 0.000000 1.000000 0.000000
      length 15.653875
      axis 0.0 0.0 0.0 xyz
   end
   begin
      id 6
      name Spine_dum2
      direction 0.000000 1.000000 0.000000
      length 10.329768
      axis 0.0 0.0 0.0 xyz
   end
   begin
      id 7
      name Spine_dum3
      direction 0.000000 1.000000 0.000000
      length 10.329768
      axis 0.0 0.0 0.0 xyz
   end
   begin
      id 8
      name Head
      direction 0.000000 1.000000 0.000000
      length 4.527550
      axis 0.0 0.0 0.0 xyz
      dof rx ry rz
   end
   begin
      id 9
      name LeftShoulder
      direction 1.000000 0.000000 0.000000
      length 6.996006
      axis 0.0 0.0 -90.0 xyz
      dof rx ry rz
   end
   begin
      id 10
      name LeftArm
      direction 1.000000 0.000000 0.000000
      length 10.209302
      axis 0.0 0.0 -90.0 xyz
      dof rx ry rz
   end
   begin
      id 11
      name LeftForeArm
      direction 1.000000 0.000000 0.000000
      length 8.563163
      axis 0.0 0.0 -90.0 xyz
      dof ry rz rx
   end
   begin
      id 12
      name LeftHand
      direction 0.000000 0.000000 0.000000
      length 0.000000
      axis 0.0 0.0 -90.0 xyz
      dof rx ry rz
   end
   begin
      id 13
      name LeftHand_dum1
      direction 0.000000 0.000000 0.000000
      length 0.000000
      axis 0.0 0.0 -90.0 xyz
   end
   begin
      id 14
      name LeftHand_dum2
      direction 1.000000 0.000000 0.000000
      length 3.937000
      axis 0.0 0.0 -90.0 xyz
   end
   begin
      id 15
      name LeftHandThumb1
      direction 0.000000 0.000000 1.000000
      length 3.937000
      axis 0.0 0.0 -90.0 xyz
      dof rx rz ry
   end
   begin
      id 16
      name RightShoulder
      direction -1.000000 0.000000 0.000000
      length 6.996006
      axis 0.0 0.0 90.0 xyz
      dof rx ry rz
   end
   begin
      id 17
      name RightArm
      direction -1.000000 0.000000 0.000000
      length 10.209302
      axis 0.0 0.0 90.0 xyz
      dof rx ry rz
   end
   begin
      id 18
      name RightForeArm
      direction -1.000000 0.000000 0.000000
      length 8.563163
      axis 0.0 0.0 90.0 xyz
      dof ry rz rx
   end
   begin
      id 19
      name RightHand
      direction 0.000000 0.000000 0.000000
      length 0.000000
      axis 0.0 0.0 90.0 xyz
      dof rx ry rz
   end
   begin
      id 20
      name RightHand_dum1
      direction 0.000000 0.000000 0.000000
      length 0.000000
      axis 0.0 0.0 90.0 xyz
   end
   begin
      id 21
      name RightHand_dum2
      direction -1.000000 0.000000 0.000000
      length 3.937000
      axis 0.0 0.0 90.0 xyz
   end
   begin
      id 22
      name RightHandThumb1
      direction 0.000000 0.000000 1.000000
      length 3.937000
      axis 0.0 0.0 90.0 xyz
      dof rx rz ry
   end
   begin
      id 23
      name LeftUpLeg
      direction 0.000000 -1.000000 0.000000
      length 16.346831
      axis 0.0 0.0 0.0 xyz
      dof rx ry rz
   end
   begin
      id 24
      name LeftLeg
      direction 0.000000 -1.000000 0.000000
      length 13.959795
      axis 0.0 0.0 0.0 xyz
      dof rx ry rz
   end
   begin
      id 25
      name LeftFoot
      direction 0.000000 -0.258819 0.965926
      length 5.165550
      axis 15.0 0.0 0.0 xyz
      dof rx ry rz
   end
   begin
      id 26
      name LeftToeBase
      direction 0.000000 0.000000 1.000000
      length 2.952750
      axis 0.0 0.0 0.0 xyz
      dof rx ry rz
   end
   begin
      id 27
      name RightUpLeg
      direction 0.000000 -1.000000 0.000000
      length 16.346831
      axis 0.0 0.0 0.0 xyz
      dof rx ry rz
   end
   begin
      id 28
      name RightLeg
      direction 0.000000 -1.000000 0.000000
      length 13.959795
      axis 0.0 0.0 0.0 xyz
      dof rx ry rz
   end
   begin
      id 29
      name RightFoot
      direction 0.000000 -0.258819 0.965926
      length 5.165550
      axis 15.0 0.0 0.0 xyz
      dof rx ry rz
   end
   begin
      id 30
      name RightToeBase
      direction 0.000000 0.000000 1.000000
      length 2.952750
      axis 0.0 0.0 0.0 xyz
      dof rx ry rz
   end
:hierarchy
   begin
      root Spine_dum LeftUpLeg_dum RightUpLeg_dum
      Spine_dum Spine
      LeftUpLeg_dum LeftUpLeg
      RightUpLeg_dum RightUpLeg
      Spine Spine_dum1 Spine_dum2 Spine_dum3
      Spine_dum1 Head
      Spine_dum2 LeftShoulder
      Spine_dum3 RightShoulder
      LeftShoulder LeftArm
      LeftArm LeftForeArm
      LeftForeArm LeftHand
      LeftHand LeftHand_dum1 LeftHand_dum2
      LeftHand_dum1 LeftHandThumb1
      RightShoulder RightArm
      RightArm RightForeArm
      RightForeArm RightHand
      RightHand RightHand_dum1 RightHand_dum2
      RightHand_dum1 RightHandThumb1
      LeftUpLeg LeftLeg
      LeftLeg LeftFoot
      LeftFoot LeftToeBase
      RightUpLeg RightLeg
      RightLeg RightFoot
      RightFoot RightToeBase
   end

# File created by Blade
# Date/Time:  Tue Jan 27 18:12:42 2015
# Frame Rate: 120.000 fps
#------------------------------------------------------
:FULLY-SPECIFIED
:DEGREES
1
root -1.376862 31.835571 -6.585399 5.911042 8.483941 3.676289
Spine -6.127918 -8.502814 -1.199553
Head 7.445496 6.476875 -1.494860
LeftShoulder -17.258928 16.440046 21.943948
LeftArm 26.037851 -18.292301 -23.004614
LeftForeArm 1.432479 -0.000000 1.404069
LeftHand -14.454504 -0.000000 -1.590479
LeftHandThumb1 -26.253704 0.000000 33.147579
RightShoulder -11.044071 4.549818 -34.431565
RightArm 20.613759 10.436584 35.683686
RightForeArm -23.438415 0.000000 7.829258
RightHand -14.270483 -0.000000 12.805492
RightHandThumb1 -24.326973 -0.000000 -32.862282
LeftUpLeg -1.748296 -1.685963 -1.374933
LeftLeg 1.123289 -0.000000 -0.000000
LeftFoot -17.540699 15.892368 -24.440121
LeftToeBase 8.523404 -0.000000 -0.000000
RightUpLeg 1.507515 -4.282552 -4.120481
RightLeg -3.399900 -0.000000 0.000000
RightFoot -15.798530 -14.846675 10.159100
RightToeBase 5.173792 -0.000000 -0.000000
2
root -1.377153 31.835801 -6.585555 5.907152 8.479328 3.675245
Spine -6.122107 -8.489412 -1.197399
Head 7.446381 6.469329 -1.498247
LeftShoulder -17.269787 16.445355 21.932412
LeftArm 26.071954 -18.283908 -23.004349
LeftForeArm 1.318235 -0.000000 1.396133
LeftHand -14.580954 -0.000000 -1.508830
LeftHandThumb1 -26.253704 0.000000 33.147579
RightShoulder -11.055752 4.557754 -34.426400
RightArm 20.614673 10.453970 35.695106
RightForeArm -23.409363 0.000000 7.815002
RightHand -14.255844 -0.000000 12.762469
RightHandThumb1 -24.326973 -0.000000 -32.862282
LeftUpLeg -1.747963 -1.678251 -1.373501
LeftLeg 1.131270 -0.000000 -0.000000
LeftFoot -17.533534 15.887405 -24.439669
LeftToeBase 8.510917 -0.000000 -0.000000
RightUpLeg 1.511803 -4.287935 -4.119584
RightLeg -3.403169 -0.000000 0.000000
RightFoot -15.793425 -14.834600 10.150213
RightToeBase 5.176703 -0.000000 -0.000000
3
root -1.376118 31.835714 -6.586226 5.905501 8.474721 3.679514
Spine -6.121267 -8.487179 -1.190375
Head 7.462304 6.478912 -1.512836
LeftShoulder -17.285598 16.457369 21.902547
LeftArm 26.093137 -18.310213 -23.006120
LeftForeArm 1.272824 0.000000 1.390784
LeftHand -14.568466 -0.000000 -1.369714
LeftHandThumb1 -26.253704 0.000000 33.147579
RightShoulder -11.055059 4.540582 -34.442032
RightArm 20.622460 10.507653 35.741805
RightForeArm -23.403475 0.000000 7.828449
RightHand -14.285525 -0.000000 12.706238
RightHandThumb1 -24.326973 -0.000000 -32.862282
LeftUpLeg -1.743644 -1.686952 -1.382649
LeftLeg 1.126021 -0.000000 -0.000000
LeftFoot -17.539978 15.908433 -24.435572
LeftToeBase 8.513183 -0.000000 -0.000000
RightUpLeg 1.508904 -4.291152 -4.126387
RightLeg -3.396203 -0.000000 0.000000
RightFoot -15.800928 -14.819831 10.165988
RightToeBase 5.207169 -0.000000 -0.000000
4
root -1.375510 31.835871 -6.586900 5.900525 8.477069 3.678792
Spine -6.113113 -8.487722 -1.181100
Head 7.467966 6.474774 -1.528100
LeftShoulder -17.299273 16.422285 21.892057
LeftArm 26.097819 -18.312922 -23.013083
LeftForeArm 1.236288 -0.000000 1.391483
LeftHand -14.545864 -0.000000 -1.274394
LeftHandThumb1 -26.253704 0.000000 33.147579
RightShoulder -11.061471 4.549221 -34.451482
RightArm 20.617390 10.536469 35.766770
RightForeArm -23.390665 -0.000000 7.837973
RightHand -14.298176 -0.000000 12.694034
RightHandThumb1 -24.326973 -0.000000 -32.862282
LeftUpLeg -1.742223 -1.689897 -1.381374
LeftLeg 1.130245 -0.000000 -0.000000
LeftFoot -17.556117 15.887681 -24.482966
LeftToeBase 8.537639 -0.000000 -0.000000
RightUpLeg 1.511473 -4.305480 -4.127092
RightLeg -3.394037 -0.000000 0.000000
RightFoot -15.791876 -14.803604 10.164233
RightToeBase 5.162766 -0.000000 -0.000000
5
root -1.375058 31.835951 -6.587818 5.899900 8.479347 3.675071
Spine -6.116009 -8.493632 -1.169741
Head 7.490279 6.483146 -1.529924
LeftShoulder -17.291077 16.300539 21.943361
LeftArm 26.040372 -18.282388 -23.067382
LeftForeArm 1.229664 -0.000000 1.434190
LeftHand -14.551430 -0.000000 -1.240882
LeftHandThumb1 -26.253704 0.000000 33.147579
RightShoulder -11.052043 4.575712 -34.446039
RightArm 20.597440 10.556220 35.768583
RightForeArm -23.394373 -0.000000 7.849102
RightHand -14.287066 0.000000 12.707962
RightHandThumb1 -24.326973 -0.000000 -32.862282
LeftUpLeg -1.745164 -1.696537 -1.377230
LeftLeg 1.132090 -0.000000 -0.000000
LeftFoot -17.558144 15.893009 -24.481188
LeftToeBase 8.524718 -0.000000 -0.000000
RightUpLeg 1.512729 -4.297988 -4.124722
RightLeg -3.396290 -0.000000 0.000000
RightFoot -15.788643 -14.828617 10.145137
RightToeBase 5.162626 -0.000000 -0.000000
6
root -1.375690 31.835994 -6.588535 5.896266 8.466358 3.680048
Spine -6.111459 -8.479855 -1.176680
Head 7.510226 6.488232 -1.525787
LeftShoulder -17.299247 16.295058 21.933172
LeftArm 26.051547 -18.356368 -23.091339
LeftForeArm 1.276572 0.000000 1.447793
LeftHand -14.549480 -0.000000 -1.188618
LeftHandThumb1 -26.253704 0.000000 33.147579
RightShoulder -11.061290 4.568891 -34.447645
RightArm 20.609599 10.542855 35.779528
RightForeArm -23.354167 -0.000000 7.843950
RightHand -14.260163 -0.000000 12.695372
RightHandThumb1 -24.326973 -0.000000 -32.862282
LeftUpLeg -1.742486 -1.687911 -1.382675
LeftLeg 1.135430 -0.000000 -0.000000
LeftFoot -17.542554 15.900506 -24.456200
LeftToeBase 8.545773 -0.000000 -0.000000
RightUpLeg 1.510902 -4.290887 -4.128504
RightLeg -3.393284 -0.000000 0.000000
RightFoot -15.792533 -14.827698 10.151448
RightToeBase 5.178747 -0.000000 -0.000000
7
root -1.375761 31.836023 -6.588749 5.893675 8.467322 3.680193
Spine -6.110997 -8.484761 -1.171932
Head 7.520943 6.491320 -1.537833
LeftShoulder -17.304908 16.280297 21.933792
LeftArm 26.042121 -18.356570 -23.096677
LeftForeArm 1.270391 -0.000000 1.458003
LeftHand -14.532247 -0.000000 -1.145624
LeftHandThumb1 -26.253704 0.000000 33.147579
RightShoulder -11.063386 4.581592 -34.446940
RightArm 20.608681 10.525178 35.776886
RightForeArm -23.358713 -0.000000 7.848348
RightHand -14.253312 -0.000000 12.709652
RightHandThumb1 -24.326973 -0.000000 -32.862282
LeftUpLeg -1.739586 -1.686503 -1.382745
LeftLeg 1.133965 -0.000000 -0.000000
LeftFoot -17.538594 15.904560 -24.440554
LeftToeBase 8.539110 -0.000000 -0.000000
RightUpLeg 1.512558 -4.302826 -4.129616
RightLeg -3.392949 -0.000000 0.000000
RightFoot -15.793672 -14.792250 10.164069
RightToeBase 5.198840 -0.000000 -0.000000
8
root -1.375871 31.835718 -6.590312 5.897036 8.480633 3.669989
Spine -6.119324 -8.504024 -1.147117
Head 7.549022 6.509847 -1.550564
LeftShoulder -17.312668 16.277289 21.924192
LeftArm 26.043439 -18.375905 -23.101546
LeftForeArm 1.289683 -0.000000 1.453945
LeftHand -14.569700 -0.000000 -1.195050
LeftHandThumb1 -26.253704 0.000000 33.147579
RightShoulder -11.058724 4.578575 -34.465601
RightArm 20.636681 10.602710 35.825875
RightForeArm -23.473733 -0.000000 7.817478
RightHand -14.207035 0.000000 12.783325
RightHandThumb1 -24.326973 -0.000000 -32.862282
LeftUpLeg -1.750781 -1.688720 -1.373199
LeftLeg 1.140170 -0.000000 -0.000000
LeftFoot -17.555491 15.892164 -24.462120
LeftToeBase 8.552346 -0.000000 -0.000000
RightUpLeg 1.507927 -4.311942 -4.117122
RightLeg -3.394732 -0.000000 0.000000
RightFoot -15.787372 -14.805695 10.165914
RightToeBase 5.170526 -0.000000 -0.000000
9
root -1.375942 31.835645 -6.591741 5.897109 8.475099 3.673775
Spine -6.115214 -8.496033 -1.147583
Head 7.551177 6.501169 -1.562088
LeftShoulder -17.327829 16.286566 21.919124
LeftArm 26.074303 -18.375444 -23.104133
LeftForeArm 1.281158 0.000000 1.422895
LeftHand -14.521009 -0.000000 -1.201731
LeftHandThumb1 -26.253704 0.000000 33.147579
RightShoulder -11.062724 4.575643 -34.461510
RightArm 20.643168 10.590878 35.812643
RightForeArm -23.435853 -0.000000 7.796910
RightHand -13.974488 -0.000000 12.867886
RightHandThumb1 -24.326973 -0.000000 -32.862282
LeftUpLeg -1.751335 -1.687854 -1.376161
LeftLeg 1.138608 -0.000000 -0.000000
LeftFoot -17.551131 15.886164 -24.462015
LeftToeBase 8.573359 -0.000000 -0.000000
RightUpLeg 1.505712 -4.325825 -4.119207
RightLeg -3.396608 -0.000000 0.000000
RightFoot -15.777687 -14.808373 10.129786
RightToeBase 5.166486 -0.000000 -0.000000
10
root -1.376257 31.835698 -6.592222 5.892932 8.474427 3.668616
Spine -6.115764 -8.495447 -1.138376
Head 7.573914 6.501551 -1.564255
LeftShoulder -17.324907 16.296932 21.923544
LeftArm 26.077694 -18.374607 -23.107604
LeftForeArm 1.257983 -0.000000 1.406784
LeftHand -14.523229 -0.000000 -1.219984
LeftHandThumb1 -26.253704 0.000000 33.147579
RightShoulder -11.063478 4.570525 -34.459780
RightArm 20.655351 10.567819 35.800534
RightForeArm -23.466791 -0.000000 7.796138
RightHand -13.976975 -0.000000 12.939252
RightHandThumb1 -24.326973 -0.000000 -32.862282
LeftUpLeg -1.748861 -1.678386 -1.371578
LeftLeg 1.137081 -0.000000 -0.000000
LeftFoot -17.547591 15.884674 -24.453243
LeftToeBase 8.554695 -0.000000 -0.000000
RightUpLeg 1.507459 -4.325012 -4.115953
RightLeg -3.394905 -0.000000 0.000000
RightFoot -15.778727 -14.800631 10.144633
RightToeBase 5.168588 -0.000000 -0.000000
